inDegrees=no
num_controls=7
num_derivatives=13
num_iterations=133
num_multipliers=7
num_parameters=0
num_slacks=7
num_states=26
objective=5.737831
objective_accelerations=0.692656
objective_balance=0.015099
objective_effort=0.490754
objective_height=4.515380
objective_ligament=0.023942
solver_duration=1153.087314
status=Solve_Succeeded
success=true
DataType=double
version=3
OpenSimVersion=4.4-2022-07-23-0e9fedc
endheader
time	/jointset/ground_pelvis/pelvis_tilt/value	/jointset/ground_pelvis/pelvis_tx/value	/jointset/ground_pelvis/pelvis_ty/value	/jointset/hip_r/hip_flexion_r/value	/jointset/hip_r/hip_adduction_r/value	/jointset/hip_r/hip_rotation_r/value	/jointset/back/lumbar_extension/value	/jointset/patellofemoral_r/patellar_flexion_r/value	/jointset/knee_r/knee_flexion_r/value	/jointset/knee_r/knee_adduction_r/value	/jointset/knee_r/knee_rotation_r/value	/jointset/ankle_r/ankle_angle_r/value	/jointset/subtalar_r/subtalar_angle_r/value	/jointset/ground_pelvis/pelvis_tilt/speed	/jointset/ground_pelvis/pelvis_tx/speed	/jointset/ground_pelvis/pelvis_ty/speed	/jointset/hip_r/hip_flexion_r/speed	/jointset/hip_r/hip_adduction_r/speed	/jointset/hip_r/hip_rotation_r/speed	/jointset/back/lumbar_extension/speed	/jointset/patellofemoral_r/patellar_flexion_r/speed	/jointset/knee_r/knee_flexion_r/speed	/jointset/knee_r/knee_adduction_r/speed	/jointset/knee_r/knee_rotation_r/speed	/jointset/ankle_r/ankle_angle_r/speed	/jointset/subtalar_r/subtalar_angle_r/speed	/forceset/tau_hip_flexion_r	/forceset/tau_hip_adduction_r	/forceset/tau_hip_rotation_r	/forceset/tau_knee_flexion_r	/forceset/tau_ankle_angle_r	/forceset/tau_subtalar_angle_r	/forceset/tau_lumbar_extension	lambda_cid13_p0	lambda_cid14_p0	lambda_cid14_p1	lambda_cid14_p2	lambda_cid14_p3	lambda_cid14_p4	lambda_cid14_p5	/jointset/ground_pelvis/pelvis_tilt/accel	/jointset/ground_pelvis/pelvis_tx/accel	/jointset/ground_pelvis/pelvis_ty/accel	/jointset/hip_r/hip_flexion_r/accel	/jointset/hip_r/hip_adduction_r/accel	/jointset/hip_r/hip_rotation_r/accel	/jointset/back/lumbar_extension/accel	/jointset/patellofemoral_r/patellar_flexion_r/accel	/jointset/knee_r/knee_flexion_r/accel	/jointset/knee_r/knee_adduction_r/accel	/jointset/knee_r/knee_rotation_r/accel	/jointset/ankle_r/ankle_angle_r/accel	/jointset/subtalar_r/subtalar_angle_r/accel	gamma_cid13_p0	gamma_cid14_p0	gamma_cid14_p1	gamma_cid14_p2	gamma_cid14_p3	gamma_cid14_p4	gamma_cid14_p5
1.5	-0.1014462033644857	0.02336638851463696	0.8033965928920667	0.8725653106199149	-0.2246832465686127	-0.1199213979605151	-0.6340113266032953	0.9861559914445703	0.9861559914445563	-0.05320158599161531	0.1745280508389476	0.3085002706871581	0.1414149448917192	0.5038823759965894	0.2361285826303939	0.5666083090640717	-2.174781862178178	0.02294841143267959	-0.2138295487807305	0.7998478701153053	-2.086364177395042	-2.086364177394971	0.4568227496064179	1.546974091707773e-05	-0.5266366351509545	-0.1757532925050423	-0.1694234591677261	-0.001083622828078362	0.01931151428402109	-0.3153116416845064	0.02455025942199254	0.001617352426990906	0.2196338269320927	-6.908784825789465	-33.7920485939216	-4.565762492706456	0.4090245556578441	-5.70637623893285	-627.9529060741121	66.69101869216068	0.239322084019712	0.6725731839318593	-0.5643631685588258	-1.124020952528568	-0.219279676922253	-0.5621151798381738	1.937303736304345	-1.423107089801865	-1.423107089801873	0.523230344439133	-0.03307254958085712	-0.7174038871202985	-0.449573866122402	2.005958749660484e-07	1.647282085301316e-07	-1.178067458331321e-06	1.610239145281471e-06	2.648928507473304e-08	3.394247569127583e-07	-7.153515567788584e-07
1.51	-0.09639567883225046	0.02576100169651071	0.8090333177093133	0.8507633540491856	-0.2244658066591054	-0.1220879136953842	-0.6259177074305047	0.965223731824486	0.9652237318244979	-0.04860562641528042	0.1745282369166077	0.3031984485953948	0.1396336054353896	0.5061452896883142	0.2427598564287294	0.5606130370123388	-2.185315832324425	0.02053084059881886	-0.2194952493293547	0.818760171340403	-2.099800699947809	-2.099800699947824	0.4623205278857997	2.274627207956359e-05	-0.5336460798306746	-0.1804752554691032	-0.1619587877589755	-0.002031811107079045	0.01917593719150548	-0.3104194219991936	0.02547834029081269	0.0008066177571406615	0.2126682008677679	-7.906941688388312	-33.19155747082062	-4.679707204885647	0.2752546572064511	-5.564292371175987	-622.4514665814377	66.03423266963004	0.2082027572410325	0.6532873865613783	-0.6355804473737853	-0.9740240533675759	-0.2541955360240552	-0.5717331617385685	1.850824350293379	-1.260907726329477	-1.260907726342346	0.5555575195811789	0.01801497544354372	-0.6804025303709976	-0.4776645615125741	1.998380619734378e-07	1.499792424058162e-07	-1.351562336593305e-06	1.484724657368409e-06	5.027689174237512e-08	3.509652214922742e-07	-8.701588402848668e-07
1.52	-0.09132483981400344	0.02822090419812326	0.8146063955612647	0.8288648699754524	-0.2242727824078205	-0.1243116735696039	-0.6176384390385282	0.9441657104012032	0.9441657104012539	-0.04395618786617837	0.1745285732038239	0.2978289945024387	0.1378062149394263	0.5079452731997314	0.2491864465781543	0.5538789160049038	-2.194087362778457	0.01806527978870295	-0.22527837665254	0.8369777139527356	-2.111516538033192	-2.111516538033293	0.4675185441609201	4.55116423901669e-05	-0.5401630353893252	-0.1849635004317513	-0.1544941163502229	-0.002979999386043428	0.01904036009907968	-0.3055272023138743	0.02640642115964105	-4.116912652618417e-06	0.2057025748034396	-8.972772479237056	-32.58521344698456	-4.784209577486169	0.1303642755609662	-5.455538808008095	-616.8827305092389	65.44769532219105	0.1467360479582435	0.6316364541496935	-0.712132959699269	-0.771533014085577	-0.2288776721733003	-0.5856005347504407	1.798352013751377	-1.078970196325264	-1.078970196325304	0.4632779435868536	-0.02997478175116965	-0.6189060629064813	-0.402830265839878	1.956710827313778e-07	1.428410703921312e-07	-1.389394096795335e-06	1.420510048362082e-06	5.664334691818739e-08	3.572999259379261e-07	-9.295912670747987e-07
1.53	-0.08623841857863286	0.03074402567995667	0.8201084787831848	0.8068876357209911	-0.2241045659873862	-0.1265935766434942	-0.609180618331818	0.9229993780284492	0.9229993780284602	-0.03925622342667226	0.17452889508641	0.2923970370431902	0.1359353205084816	0.5092558273266506	0.2554003755707634	0.5464200882869392	-2.20105527015262	0.01556911164801091	-0.2311132233805584	0.8544466681323845	-2.121441931150725	-2.121441931150805	0.4724324654735607	2.097125875527568e-05	-0.5461307190094006	-0.1891730694674229	-0.1467078569115331	-0.004350781700199525	0.01898271262414477	-0.3013999450448205	0.02813601219935161	-0.0009277039006819093	0.1985002710207622	-10.08508194021391	-31.74485973974689	-4.910528151117876	0.004689966776972258	-5.514560859807477	-611.5504184872156	64.9512591281494	0.1107558436024351	0.6106575888181724	-0.7803319849513822	-0.6137686596107585	-0.2612003938580784	-0.5837829174825527	1.700203231565038	-0.9031598065803055	-0.9031598065769885	0.4990057836166561	0.01186682361828852	-0.5709911565113891	-0.4236973330385533	1.878818643492777e-07	1.437893671209908e-07	-1.283083794058666e-06	1.421426560694161e-06	4.449982863393067e-08	3.581035102413476e-07	-8.876879086039001e-07
1.54	-0.08114138365228828	0.03332816374511658	0.8255324588665045	0.7848498525806794	-0.2239615540501287	-0.1289340994197945	-0.600552300861014	0.9017430245370843	0.9017430245370831	-0.0345084084623546	0.1745290836632866	0.2869083444187502	0.1340235949650584	0.5100680113953245	0.2613897632434552	0.5382582882847499	-2.206197139947938	0.0130243831536833	-0.2370023171347815	0.8710770667717675	-2.129520761752775	-2.129520761752832	0.4770886491267653	1.885048663651713e-05	-0.5515100684276137	-0.1931297229274082	-0.1389215974728476	-0.005721564014359457	0.01892506514939591	-0.2972726877757498	0.02986560323905993	-0.00185129088872177	0.1912979672380791	-11.19959245724912	-30.90296401232388	-5.03293279964804	-0.1257710447323029	-5.589422288671472	-606.200390898643	64.52108274316834	0.04706203630916502	0.5867281901661587	-0.8527274165442122	-0.4063254983164183	-0.2385897429005007	-0.5964499399915363	1.630640905698252	-0.709657693228476	-0.7096576932284748	0.4117304116996442	-0.02549085944773136	-0.5012392225340812	-0.3522471507027179	1.82416668807962e-07	1.363971997431588e-07	-1.28877139462018e-06	1.342509149983561e-06	4.925100701372692e-08	3.550984702704494e-07	-9.061015436171138e-07
1.55	-0.07603879457828676	0.03597093523929518	0.8308713854792521	0.7627699667276397	-0.2238440717495975	-0.1313341950767805	-0.5917619431428696	0.8804151076207554	0.880415107620744	-0.02971585777059737	0.1745294320149294	0.281368763307938	0.1320737957648391	0.5103646817028245	0.2671129941261102	0.5294183325940394	-2.209461201302253	0.01047027641562369	-0.2430122005717439	0.8868394869568235	-2.135747120664844	-2.135747120664838	0.4813808660689197	4.254954737360363e-05	-0.5563130250780646	-0.1967826047361744	-0.1313748847104907	-0.006920342490918124	0.01885100517460913	-0.2929627593976469	0.03095902289295412	-0.002922519849707996	0.1842509130225108	-12.31153479706917	-30.30798860351523	-5.266007706070053	-0.2348007515296547	-5.381629648450729	-601.2299535633276	63.90850702834907	0.008210051327706401	0.5574067016576904	-0.9158661763877468	-0.2386088068776523	-0.2640444160003206	-0.6023000382944652	1.525794089878539	-0.5318354790049868	-0.5318354789955759	0.4316763293403455	0.01523244162457322	-0.4557995879467889	-0.3647901711380382	1.796291517571151e-07	1.193953671989215e-07	-1.423500057677416e-06	1.171609175767274e-06	7.346781415862658e-08	3.477052327660961e-07	-9.940108450359309e-07
1.56	-0.07093579069654271	0.0386693962751689	0.8361186652288825	0.7406670077904771	-0.2237521751717982	-0.1337941980666832	-0.5828186109198814	0.8590343850175417	0.8590343850175267	-0.02488164311065225	0.1745298037877394	0.2757839574902921	0.1300888714514969	0.5101509729446224	0.2725276715824807	0.5199289156612412	-2.2108117567721	0.007907238607901336	-0.2489837837185417	0.901671967740648	-2.140081899129266	-2.140081899129199	0.4854214427657573	2.353471971472187e-05	-0.5605550097943677	-0.2001547455519215	-0.1238281719481293	-0.008119120967481207	0.01877694519986605	-0.2886528310195373	0.03205244254684693	-0.003993748810702302	0.1772038588069448	-13.41678013682234	-29.71234772045832	-5.495782639756441	-0.3479932907072431	-5.186829525077399	-596.258349334582	63.35643541204249	-0.05501377683120284	0.5250175049092446	-0.9826196649617541	-0.02362432142263349	-0.2403759568331495	-0.5887898819588044	1.444653025451978	-0.3313416036992688	-0.3313416036992647	0.3614023626363318	-0.03403363712662915	-0.3890448357045995	-0.2960989520990412	1.799833956180823e-07	1.008844906434671e-07	-1.611816218387594e-06	9.716792223309383e-07	1.042152410775632e-07	3.358936179190863e-07	-1.097134329810248e-06
1.57	-0.06583751966527673	0.04142046589224569	0.8412679235944408	0.7185600565520119	-0.2236858494894378	-0.1363145532432604	-0.5737316002080476	0.8376197273572701	0.8376197273572623	-0.0200089963672162	0.1745302453219471	0.2701596905905097	0.128071845563435	0.5094137655587762	0.2776347474657465	0.5098262017371256	-2.210262338513041	0.005357982150077004	-0.2550753145659592	0.9155744904107274	-2.14252818491228	-2.142528184912198	0.4890712965970109	5.819102638929933e-05	-0.5641922952389408	-0.2031991050254931	-0.1162501663576962	-0.009598507243681319	0.01873441546467315	-0.2849993308478026	0.03377562948746424	-0.00517811269061847	0.1702319431095013	-14.51027690666825	-28.95565418088367	-5.760858397547679	-0.4391487431745615	-5.15657164483981	-591.8257550067917	62.86983247932634	-0.09648990415520271	0.4958600807175225	-1.038518897456248	0.1416548538572203	-0.2622563440236717	-0.6173043759837824	1.339699255474565	-0.1530922096816814	-0.1530922096795189	0.3610093031326079	0.02130121513293231	-0.3350869664307523	-0.3011516420551192	1.842648406188171e-07	8.048730907399135e-08	-1.867116751163945e-06	7.354617948695431e-07	1.43125942714046e-07	3.18559031393756e-07	-1.21927554377894e-06
1.58	-0.06074930384481165	0.04422106775829168	0.8463132704924947	0.6964680854869945	-0.2236450275424134	-0.1388954176662788	-0.5645102347959755	0.8161902428103571	0.8161902428103485	-0.01510100460351315	0.1745308506093508	0.2645022475227621	0.1260258666412231	0.5081399307851804	0.2824341213763188	0.4991466221602358	-2.207815722082494	0.002806491541592866	-0.2610856330073965	0.9285429077883498	-2.143047276458465	-2.143047276458368	0.4924904468187755	5.628535579668855e-05	-0.567190243387401	-0.2059453523818216	-0.1086721607672461	-0.01107789351988456	0.018691885729437	-0.2813458306760674	0.03549881642807975	-0.00636247657053919	0.1632600274120723	-15.58858249590599	-28.19916070548919	-6.0237550570555	-0.5331808813507064	-5.133164766101205	-587.4032710192258	62.43421818946102	-0.1623392543810635	0.4634771103705502	-1.097992795516569	0.3558153128748275	-0.2408227869652025	-0.5725474007629615	1.257831966960579	0.05409724366650338	0.05409724366650349	0.3152616407385737	-0.04134603257978056	-0.2611773764820721	-0.2364765286505647	1.853413046265142e-07	6.341898475747512e-08	-2.062553324655712e-06	5.160672717040248e-07	1.729721345614578e-07	3.063540630608927e-07	-1.297986546798678e-06
1.59	-0.0556765057140565	0.0470679648533411	0.851249024664272	0.6744102801085089	-0.2236294884512466	-0.1415365856473175	-0.5551641517961715	0.7947652731954513	0.7947652731954574	-0.01016081383436468	0.1745314462060271	0.2588180107320343	0.1239542607737549	0.5063313602193619	0.2868775037343044	0.4879158491834601	-2.203403501426083	0.0003101887614363831	-0.2671350116663004	0.9404866377182088	-2.141603516841465	-2.14160351684138	0.4954901776029796	5.752119936269778e-05	-0.5695519044382281	-0.2083162446684367	-0.1012400603982499	-0.0124820820708756	0.01858507983026227	-0.2775347337136458	0.03662863693747571	-0.007599775403951663	0.1563606218598235	-16.64915593626362	-27.66472812058634	-6.343851445244141	-0.6234292759151173	-4.841368453310865	-583.3168690208928	61.92285291299758	-0.203365065676826	0.4246399079926247	-1.148814403370995	0.5352062527285094	-0.2528598214311876	-0.6189906015745889	1.134585337857978	0.240948749552419	0.2409487495506857	0.2833800984521248	0.02005942428717614	-0.2077980722215186	-0.2287890991994353	1.820681515722315e-07	5.086839528426089e-08	-2.176745953404119e-06	3.195038329400524e-07	1.905164916951314e-07	3.011107194178056e-07	-1.317756549244841e-06
